# xmcd
#
# Track frame offsets:
#	150
#	13574
#	26428
#	38949
#	53785
#	68360
#	84083
#	98177
#	111359
#	125327
#	138209
#	152768
#	165509
#	178549
#	192939
#	205657
#	219941
#	233083
#	245873
#	259270
#	274062
#	286978
#	299021
#	309972
#	323708
#
# Disc length: 4500 seconds
#
# Revision: 0
# Processed by: cddbd v1.5.2PL0 Copyright (c) Steve Scherf et al.
# Submitted via: dBpowerAMP V4.0
#
DISCID=59119219
DTITLE=Various Artist - The Story Of The Pre-War Blues disc2 Texas and Memphis Country Blues
DYEAR=1900
DGENRE=Blues
TTITLE0=Dallas String Band - Dallas Rag
TTITLE1=Hociel Thomas - Worried Down With The Blues
TTITLE2=Henry Thomas - John Henry
TTITLE3=Washington Phillips - What Are They Doing In Heaven Today
TTITLE4=Blind Willie Johnson - Jesus Make Up My Dying Bed
TTITLE5=Joe Pullum - Black Gal What Makes Your Head So Hard
TTITLE6=Texas Alexander - Range In My Kitchen Blues
TTITLE7=Blind Lemon Jefferson - See That My Grave Is Kept Clean
TTITLE8=Funny Papa Smith - Hungry Wolf
TTITLE9=Ramblin' Thomas - Ramblin'Mind Blues
TTITLE10=Oscar Woods - Lone Wolf Blues
TTITLE11=Black Ace - Black Ace
TTITLE12=Gus Cannon - Poor Boy,Long Ways From Home
TTITLE13=Jim Jackson - Jim Jackson's Jamboree
TTITLE14=Beale Street Sheiks - You Shall
TTITLE15=Furry Lewis - Kassie Jones
TTITLE16=Robert Wilkins - That's No Ways To Get Along
TTITLE17=Jack Kelly and His Memphis Jug Band - Highway No.61 Blues
TTITLE18=James "Yank" Rachel - Lake Michigan Blues
TTITLE19=Sleepy John Estes - Drivin' Duck Blues
TTITLE20=Charlie Picken - Let Me Squeeze Your Lemon
TTITLE21=Little Buddy Doyle - Sweet Man Blues
TTITLE22=Menmphis Minnie - I Don't Want That Junk Outa You
TTITLE23=Allen Shaw - Moanin' The Blues
TTITLE24=Memphis Jug Band - Memphis Shakedown
EXTD=
EXTT0=
EXTT1=
EXTT2=
EXTT3=
EXTT4=
EXTT5=
EXTT6=
EXTT7=
EXTT8=
EXTT9=
EXTT10=
EXTT11=
EXTT12=
EXTT13=
EXTT14=
EXTT15=
EXTT16=
EXTT17=
EXTT18=
EXTT19=
EXTT20=
EXTT21=
EXTT22=
EXTT23=
EXTT24=
PLAYORDER=
